<?xml version="1.0" encoding="UTF-8"?>
<svg version="1.1" xmlns="http://www.w3.org/2000/svg" width="128" height="128">
<path d="M0 0 C2.02325345 0.6193533 4.05415352 1.20603526 6.08764648 1.79077148 C7.39356289 2.18273152 8.69892398 2.57654758 10.00366211 2.97241211 C11.1706665 3.32327881 12.3376709 3.67414551 13.54003906 4.03564453 C18.74013541 6.32721922 21.79341723 10.32075561 25.07788086 14.82788086 C25.96733398 16.04217773 25.96733398 16.04217773 26.87475586 17.28100586 C27.47803711 18.11374023 28.08131836 18.94647461 28.70288086 19.80444336 C29.30616211 20.62944336 29.90944336 21.45444336 30.53100586 22.30444336 C31.71782337 23.92986734 32.89513335 25.56228118 34.06225586 27.2019043 C35.62186425 29.39095853 35.62186425 29.39095853 37.21850586 31.13354492 C41.88427257 36.57358758 41.46156155 42.53197535 41.70288086 49.42944336 C41.91627199 51.61369811 42.13629641 53.79731526 42.36303711 55.98022461 C43.6842201 74.18852836 39.18223684 84.99170494 27.63378906 98.99584961 C25.69739209 101.31582741 25.69739209 101.31582741 24.41845703 103.64428711 C20.22883611 110.73532394 12.94401478 112.65323006 5.53564453 115.15991211 C3.26457631 115.92971607 1.0104126 116.73835139 -1.24438477 117.55444336 C-2.69734174 118.06718693 -4.15109464 118.57768186 -5.60571289 119.08569336 C-6.27259628 119.32308228 -6.93947968 119.56047119 -7.62657166 119.80505371 C-17.18922605 123.00500401 -25.49833608 120.4322365 -34.80224609 117.81616211 C-36.33010772 117.39454925 -37.86314892 116.99124157 -39.40087891 116.60717773 C-51.4425526 113.59643599 -57.30369291 109.78391443 -64.29711914 99.42944336 C-65.46622404 97.90117142 -66.6424097 96.378267 -67.82836914 94.86303711 C-68.82134088 93.53352985 -69.81105214 92.20157975 -70.79711914 90.86694336 C-71.30758789 90.1830957 -71.81805664 89.49924805 -72.34399414 88.79467773 C-78.51044085 80.5105434 -78.87546889 74.29128965 -79.17407227 64.15698242 C-79.29488778 61.47890515 -79.54003172 58.83804173 -79.81274414 56.17163086 C-80.93067641 42.41542298 -77.04834978 34.39451867 -68.27661133 23.91845703 C-66.18867351 21.37282199 -66.18867351 21.37282199 -64.20043945 18.21582031 C-58.25384369 9.24334461 -52.16501871 5.58089868 -41.99291992 2.32177734 C-39.78339633 1.61253845 -37.60274456 0.84279602 -35.41821289 0.06030273 C-22.3460567 -4.50186727 -13.09066113 -4.03195562 0 0 Z M-16.29711914 0.42944336 C-16.54630715 4.5544633 -16.72663121 8.67651935 -16.84643555 12.80737305 C-16.89640815 14.20854029 -16.96442398 15.60919425 -17.05151367 17.00854492 C-17.69223272 25.50069735 -17.69223272 25.50069735 -14.28369141 32.99438477 C-11.72120434 35.05733177 -9.12670763 36.75637656 -6.29711914 38.42944336 C-4.99832218 39.38070102 -3.70908602 40.34527877 -2.43383789 41.32788086 C-1.28615767 42.15626234 -0.13647506 42.98187805 1.01538086 43.80444336 C1.59610352 44.22854492 2.17682617 44.65264648 2.77514648 45.08959961 C5.97644419 47.38295864 8.88579754 49.40947677 12.70288086 50.42944336 C15.39729942 49.51946214 15.39729942 49.51946214 18.00366211 47.78100586 C18.98012695 47.18803711 19.9565918 46.59506836 20.96264648 45.98413086 C21.97004883 45.34733398 22.97745117 44.71053711 24.01538086 44.05444336 C25.04211914 43.42538086 26.06885742 42.79631836 27.12670898 42.14819336 C29.66260401 40.59127176 32.18682942 39.01816188 34.70288086 37.42944336 C31.87194178 31.53544256 27.79378186 26.41511216 23.94848633 21.15209961 C22.86673787 19.65605548 21.81519319 18.13826129 20.76928711 16.61694336 C20.21112305 15.83319336 19.65295898 15.04944336 19.07788086 14.24194336 C18.61124023 13.56776367 18.14459961 12.89358398 17.66381836 12.19897461 C12.03270414 7.11751098 2.33421651 5.7849516 -4.79711914 3.74194336 C-5.90571289 3.42161133 -7.01430664 3.1012793 -8.15649414 2.77124023 C-10.8692362 1.98781904 -13.582776 1.20729546 -16.29711914 0.42944336 Z M-34.23266602 4.68969727 C-35.6783483 5.17814701 -37.12724483 5.65719672 -38.5793457 6.1262207 C-47.31289097 8.95272081 -54.08324219 11.4518196 -59.29711914 19.42944336 C-59.85882813 20.2114209 -60.42053711 20.99339844 -60.99926758 21.79907227 C-62.74761974 24.25231098 -64.43458534 26.73818805 -66.10961914 29.24194336 C-66.68131836 30.08692383 -67.25301758 30.9319043 -67.84204102 31.80249023 C-70.00574222 35.0035476 -72.1539125 38.2146334 -74.29711914 41.42944336 C-70.41190855 42.99889157 -66.51267876 44.52998584 -62.60961914 46.05444336 C-60.95542969 46.7234668 -60.95542969 46.7234668 -59.26782227 47.40600586 C-57.66777344 48.02475586 -57.66777344 48.02475586 -56.03540039 48.65600586 C-55.05611572 49.04353027 -54.07683105 49.43105469 -53.06787109 49.83032227 C-48.90429158 50.73061517 -46.66593308 49.29988732 -43.18823242 47.08837891 C-42.50486816 46.58604736 -41.82150391 46.08371582 -41.11743164 45.56616211 C-39.97081055 44.72988281 -39.97081055 44.72988281 -38.80102539 43.87670898 C-38.01598633 43.29598633 -37.23094727 42.71526367 -36.42211914 42.11694336 C-34.86231182 40.97489538 -33.30241718 39.83296665 -31.74243164 38.69116211 C-30.99582275 38.12276611 -30.24921387 37.55437012 -29.47998047 36.96875 C-27.29711914 35.42944336 -27.29711914 35.42944336 -25.18261719 34.43505859 C-22.91181525 33.29692657 -21.74927592 32.53305846 -20.29711914 30.42944336 C-19.42870991 25.303873 -19.63871398 20.28231345 -19.85961914 15.11694336 C-19.89475535 13.69449355 -19.92669038 12.27196083 -19.95532227 10.84936523 C-20.03222364 7.37432804 -20.15287445 3.90241162 -20.29711914 0.42944336 C-24.75817596 0.42944336 -29.96764886 3.23379469 -34.23266602 4.68969727 Z M-19.29711914 34.42944336 C-28.06073839 40.63916765 -36.73825438 46.9397547 -45.29711914 53.42944336 C-42.62343179 64.30243857 -38.87575135 74.82858946 -35.29711914 85.42944336 C-24.40711914 85.42944336 -13.51711914 85.42944336 -2.29711914 85.42944336 C-0.62649414 80.72694336 1.04413086 76.02444336 2.76538086 71.17944336 C3.29655518 69.70185547 3.82772949 68.22426758 4.375 66.7019043 C4.78355225 65.53433594 5.19210449 64.36676758 5.61303711 63.16381836 C6.03721924 61.96982422 6.46140137 60.77583008 6.8984375 59.5456543 C7.87964254 55.85788602 7.87964254 55.85788602 6.70288086 52.42944336 C4.94738634 50.6681036 4.94738634 50.6681036 2.69506836 49.11694336 C1.87264648 48.51624023 1.05022461 47.91553711 0.20288086 47.29663086 C-0.66336914 46.68045898 -1.52961914 46.06428711 -2.42211914 45.42944336 C-3.26516602 44.81327148 -4.10821289 44.19709961 -4.97680664 43.56225586 C-9.61154152 40.20855019 -14.26756801 37.15548733 -19.29711914 34.42944336 Z M24.39038086 47.30444336 C22.80193359 48.10881836 22.80193359 48.10881836 21.18139648 48.92944336 C14.96050972 52.30907862 11.52022141 54.85745137 9.41894531 61.72192383 C9.18264404 62.61540527 8.94634277 63.50888672 8.70288086 64.42944336 C8.06758381 66.36089149 7.4268186 68.29054835 6.78100586 70.21850586 C6.16776693 72.16260375 5.55840539 74.10792887 4.95288086 76.05444336 C4.47915039 77.56071289 4.47915039 77.56071289 3.99584961 79.09741211 C3.22806559 81.54036128 2.46380454 83.98435049 1.70288086 86.42944336 C2.08621582 86.83783447 2.46955078 87.24622559 2.86450195 87.66699219 C4.60451903 89.52323882 6.34122638 91.38255064 8.07788086 93.24194336 C8.68116211 93.88454102 9.28444336 94.52713867 9.90600586 95.18920898 C10.77612305 96.12216797 10.77612305 96.12216797 11.66381836 97.07397461 C12.19797363 97.6447876 12.73212891 98.21560059 13.2824707 98.80371094 C14.70288086 100.42944336 14.70288086 100.42944336 16.70288086 103.42944336 C20.58049907 102.13690396 21.20669233 100.57888278 23.42553711 97.18725586 C24.1287207 96.12120117 24.8319043 95.05514648 25.55639648 93.95678711 C26.29291702 92.82279748 27.02924312 91.68868153 27.76538086 90.55444336 C28.5048687 89.42765099 29.24509495 88.30134285 29.98608398 87.17553711 C31.34593095 85.10517323 32.70246246 83.03262543 34.0546875 80.95727539 C35.26049212 79.1079344 36.47825823 77.2663773 37.70288086 75.42944336 C37.87642944 72.47617594 37.93667721 69.62996776 37.89038086 66.67944336 C37.88071289 65.41910278 37.88071289 65.41910278 37.87084961 64.13330078 C37.77899159 56.54137926 37.33612807 48.99448587 36.70288086 41.42944336 C32.82864193 41.42944336 27.72555836 45.5133667 24.39038086 47.30444336 Z M-75.29711914 45.42944336 C-75.40288297 49.89275417 -75.44013646 54.35035987 -75.41918945 58.81445312 C-75.42111313 60.32630106 -75.44041792 61.83824649 -75.47875977 63.34960938 C-75.77933081 75.92767259 -72.76342555 82.27806339 -64.29711914 91.42944336 C-63.22426826 92.7863718 -62.16563055 94.1549008 -61.13305664 95.54272461 C-60.71411133 96.08735352 -60.29516602 96.63198242 -59.86352539 97.19311523 C-58.00805664 99.60522461 -56.15258789 102.01733398 -54.29711914 104.42944336 C-50.13693887 103.0427166 -48.62846663 100.08401506 -46.23461914 96.61694336 C-45.78795898 95.98723633 -45.34129883 95.3575293 -44.88110352 94.70874023 C-43.65615027 92.96377694 -42.44230589 91.22785787 -41.29711914 89.42944336 C-40.69613403 88.54579102 -40.69613403 88.54579102 -40.08300781 87.64428711 C-38.19173507 82.31417641 -41.13450327 75.54616014 -42.67211914 70.24194336 C-42.9777478 69.17772659 -42.9777478 69.17772659 -43.28955078 68.0920105 C-45.64213012 60.35767404 -47.831411 54.42578149 -55.24243164 50.38256836 C-61.47180886 47.80720356 -68.48103538 45.42944336 -75.29711914 45.42944336 Z M-44.29711914 99.42944336 C-45.28203922 100.7739545 -46.28028235 102.10890532 -47.29711914 103.42944336 C-49.48201921 106.10586824 -49.48201921 106.10586824 -49.29711914 108.42944336 C-44.99690328 109.74592166 -40.6920067 111.04536249 -36.38208008 112.32958984 C-34.91812998 112.76835438 -33.45553237 113.21165915 -31.99438477 113.65966797 C-29.88779701 114.30470284 -27.77680496 114.93298361 -25.66430664 115.55834961 C-25.01718719 115.76037491 -24.37006775 115.96240021 -23.70333862 116.17054749 C-17.17796951 118.06718851 -12.45655452 116.63727796 -6.24243164 114.36303711 C-5.13383789 113.96020508 -4.02524414 113.55737305 -2.88305664 113.14233398 C-1.74094727 112.72145508 -0.59883789 112.30057617 0.57788086 111.86694336 C1.74319336 111.44219727 2.90850586 111.01745117 4.10913086 110.57983398 C6.97544416 109.53433446 9.83991572 108.48406947 12.70288086 107.42944336 C12.70288086 103.37358647 11.19731119 102.46708071 8.45288086 99.55444336 C3.79832952 94.58046203 3.79832952 94.58046203 2.05444336 91.82128906 C-0.63417795 89.0866106 -2.26170287 88.77969039 -6.03387451 88.60646057 C-7.14644623 88.5981144 -7.14644623 88.5981144 -8.28149414 88.58959961 C-9.4431308 88.56463661 -9.4431308 88.56463661 -10.62823486 88.53916931 C-12.26543381 88.51389627 -13.90288939 88.50212547 -15.5402832 88.50292969 C-18.02873517 88.49202393 -20.50595555 88.40140376 -22.99243164 88.30639648 C-33.71845894 88.1173445 -38.81956987 89.48110692 -44.29711914 99.42944336 Z " fill="#000000" transform="translate(82.297119140625,5.570556640625)"/>
</svg>
